<?xml version="1.0" ?><svg height="600mm" id="svg4658" version="1.1" viewBox="0 0 2125.9843 2125.9842" width="600mm" xmlns="http://www.w3.org/2000/svg" xmlns:cc="http://creativecommons.org/ns#" xmlns:dc="http://purl.org/dc/elements/1.1/" xmlns:inkscape="http://www.inkscape.org/namespaces/inkscape" xmlns:rdf="http://www.w3.org/1999/02/22-rdf-syntax-ns#" xmlns:sodipodi="http://sodipodi.sourceforge.net/DTD/sodipodi-0.dtd" xmlns:svg="http://www.w3.org/2000/svg"><defs id="defs4660"/><g id="layer1" transform="translate(0,1073.6222)"><path d="m 1926.9347,-421.72503 z m 0,0 0,1074.58351 c 0,73.71328 -58.2678,133.05853 -130.6466,133.05853 l -1645.31184,0 823.90923,-513.09363 z" id="path5131" style="opacity:1;fill:#eeede9;fill-opacity:1;stroke:none;stroke-width:1;stroke-miterlimit:4;stroke-dasharray:none;stroke-opacity:1"/><path d="m 19.486076,-425.37761 z m 0,0 0,1074.58363 c 0,73.71329 58.267804,133.05849 130.646584,133.05849 l 1645.31174,0 -823.90928,-513.09359 z" id="path5133" style="opacity:1;fill:#e9e7e0;fill-opacity:1;stroke:none;stroke-width:1;stroke-miterlimit:4;stroke-dasharray:none;stroke-opacity:1"/><path d="m 151.28435,-564.47645 1645.31315,0 c 72.3788,0 130.6477,69.25891 130.6477,155.28885 0,0 -560.6998,527.50821 -897.5502,703.80488 -17.6196,9.22144 -37.12112,17.45228 -57.00743,17.59315 -20.15681,0.14267 -40.11547,-7.77138 -58.02976,-17.01239 C 577.48462,121.26906 20.636615,-409.1876 20.636615,-409.1876 c 0,-86.02994 58.268955,-155.28885 130.647735,-155.28885 z" id="path5135" style="opacity:1;fill:#e0ddd4;fill-opacity:1;stroke:none;stroke-width:1;stroke-miterlimit:4;stroke-dasharray:none;stroke-opacity:1"/></g><g id="layer2"><g id="g4139" style="" transform="translate(0,1073.6222)"><circle cx="1777.8818" cy="-485.70441" id="circle5143" r="340.918" style="opacity:1;fill:#efc829;fill-opacity:1;stroke:none;stroke-width:20;stroke-miterlimit:4;stroke-dasharray:none;stroke-opacity:0.63372091"/><path d="m 1777.8983,-687.81046 c -61.2535,0 -114.8955,38.96634 -144.5397,97.30075 -15.5299,30.55897 -12.6536,66.43357 -12.6536,104.80534 0,45.78712 0.9141,88.01781 22.3769,121.90555 30.86,48.72395 79.7643,80.20054 134.8164,80.20054 57.968,0 109.1184,-34.89701 139.5655,-88.08097 18.5787,-32.45621 17.6288,-66.99606 17.6288,-109.2982 0,-38.76052 2.6949,-79.69941 -13.1263,-110.45896 -29.7389,-57.81973 -83.138,-96.37405 -144.068,-96.37405 z m -1.5712,71.44122 c 11.9593,-0.17398 23.8967,3.00457 34.6057,8.28619 23.2754,11.82409 43.3344,32.61805 49.5742,58.45674 5.529,34.91479 2.071,70.47809 2.9096,105.71618 0.2263,37.52243 -26.5033,72.95265 -61.8952,84.69889 -30.6516,10.62869 -65.7712,-2.1781 -86.4311,-26.30274 -17.0011,-19.0638 -21.8628,-45.10039 -22.6362,-69.87828 0.8488,-26.21402 -2.0991,-52.59218 -0.4871,-78.74829 3.1372,-42.84853 41.6035,-79.76525 84.3601,-82.22869 z" id="path5145" style="opacity:1;fill:#ffffff;fill-opacity:1;stroke:none;stroke-width:20;stroke-miterlimit:4;stroke-dasharray:none;stroke-opacity:0.63372091"/></g></g></svg>